#!OML:ASF X:\für Bonn\!DataBase\2005_08_10_Bjorn_Final\c3d\bjorn.ASF
:FULLY-SPECIFIED
:DEGREES
241
root 4.16295 14.1964 -0.354153 187.21 -265.249 -532.162
lowerback 20.5605 1.2336 4.34484
upperback 10.4461 3.26663 3.68493
thorax -0.15511 2.03002 0.804619
lowerneck -17.1768 0.715351 4.46446
upperneck 9.6382 1.75199 -12.249
head 5.89819 0.115144 -4.48575
rclavicle 9.54166e-015 -1.59028e-015
rhumerus -10.6453 -19.7921 -77.7175
rradius 23.4318
rwrist 6.99779
rhand -9.19316 10.5408
rfingers 7.12502
rthumb 16.7605 -18.7557
lclavicle 9.54166e-015 -1.59028e-015
lhumerus -41.0155 -51.3838 87.6949
lradius 48.9669
lwrist -1.62814
lhand -20.9465 -7.57478
lfingers 7.12502
lthumb 5.42598 22.3358
rfemur -51.2556 -7.85587 11.4551
rtibia 104.419
rfoot -23.8653 33.4603
rtoes 7.22418
lfemur -52.6991 15.7303 -18.2658
ltibia 106.563
lfoot -28.1831 -3.84451
ltoes -33.6804
242
root 4.19727 14.3597 -0.349613 186.982 -265.168 -532.593
lowerback 19.8963 1.31883 4.30356
upperback 10.2104 3.29377 3.54407
thorax -0.0707182 2.02868 0.690175
lowerneck -17.0943 0.688236 4.4271
upperneck 9.91056 1.73505 -12.1525
head 5.9665 0.107182 -4.45366
rclavicle 8.74653e-015 1.90833e-014
rhumerus -11.0648 -19.6872 -77.7495
rradius 23.4257
rwrist 6.89139
rhand -9.47269 10.7739
rfingers 7.12502
rthumb 16.4914 -18.5453
lclavicle 8.74653e-015 1.90833e-014
lhumerus -41.839 -50.911 88.4381
lradius 48.7823
lwrist -1.98127
lhand -20.6415 -7.61728
lfingers 7.12502
lthumb 5.72053 22.2855
rfemur -50.2885 -7.51363 11.6951
rtibia 102.735
rfoot -23.978 33.0926
rtoes 7.80598
lfemur -51.7551 15.3805 -18.2997
ltibia 104.941
lfoot -28.1789 -3.5099
ltoes -33.6411
243
root 4.23332 14.5246 -0.344351 186.713 -265.067 -533.046
lowerback 19.2258 1.40117 4.25547
upperback 10.0002 3.31877 3.40051
thorax 0.0473135 2.02806 0.579715
lowerneck -17.0121 0.667002 4.35195
upperneck 10.145 1.72598 -12.0211
head 6.02303 0.1053 -4.40232
rclavicle 0 -1.43125e-014
rhumerus -11.4654 -19.4823 -77.8019
rradius 23.4582
rwrist 6.69274
rhand -9.78818 10.9737
rfingers 7.12502
rthumb 16.1876 -18.3704
lclavicle 0 -1.43125e-014
lhumerus -42.5741 -50.4008 89.119
lradius 48.5558
lwrist -2.4008
lhand -20.3985 -7.57967
lfingers 7.12502
lthumb 5.95508 22.3166
rfemur -49.2822 -7.18653 11.9333
rtibia 100.997
rfoot -24.1892 32.6825
rtoes 8.0609
lfemur -50.7712 15.0752 -18.3185
ltibia 103.272
lfoot -28.1595 -3.18914
ltoes -33.4854
244
root 4.26998 14.6908 -0.33904 186.685 -264.975 -533.259
lowerback 18.5357 1.48554 4.20454
upperback 9.81397 3.34743 3.24323
thorax 0.20486 2.03135 0.45888
lowerneck -17.0077 0.647629 4.30291
upperneck 10.4351 1.71213 -11.8638
head 6.10964 0.10015 -4.34926
rclavicle 1.19271e-014 3.33958e-014
rhumerus -11.846 -19.3353 -77.8807
rradius 23.508
rwrist 6.59501
rhand -10.165 11.2006
rfingers 7.12502
rthumb 15.8247 -18.1726
lclavicle 1.19271e-014 3.33958e-014
lhumerus -43.1928 -49.8852 89.662
lradius 48.3598
lwrist -2.90827
lhand -20.0868 -7.59687
lfingers 7.12502
lthumb 6.25601 22.2907
rfemur -48.2429 -6.89978 12.1326
rtibia 99.1985
rfoot -24.3421 32.3358
rtoes 8.53138
lfemur -49.7672 14.7642 -18.3624
ltibia 101.553
lfoot -28.1399 -2.88939
ltoes -33.3204
245
root 4.30981 14.8636 -0.334251 186.798 -264.85 -533.313
lowerback 17.8674 1.57953 4.11496
upperback 9.61836 3.38674 3.09579
thorax 0.341101 2.03782 0.368233
lowerneck -16.9153 0.629337 4.21724
upperneck 10.6448 1.70267 -11.7078
head 6.15645 0.100722 -4.28755
rclavicle 5.56597e-015 1.74931e-014
rhumerus -12.2878 -19.0797 -77.9106
rradius 23.5556
rwrist 6.48485
rhand -10.5841 11.5605
rfingers 7.12502
rthumb 15.4211 -17.8442
lclavicle 5.56597e-015 1.74931e-014
lhumerus -43.8491 -49.3464 90.2667
lradius 48.1544
lwrist -3.41184
lhand -19.8054 -7.5754
lfingers 7.12502
lthumb 6.5277 22.304
rfemur -47.1441 -6.59109 12.2964
rtibia 97.3198
rfoot -24.4533 32.0178
rtoes 9.11407
lfemur -48.6948 14.518 -18.4226
ltibia 99.7663
lfoot -28.1091 -2.61256
ltoes -33.0882
246
root 4.34979 15.0372 -0.329038 187.141 -264.761 -533.127
lowerback 17.214 1.65922 4.02865
upperback 9.42619 3.41195 2.9314
thorax 0.476925 2.03839 0.26113
lowerneck -16.8176 0.611899 4.13045
upperneck 10.8568 1.68544 -11.4999
head 6.20177 0.101317 -4.20945
rclavicle 2.22639e-014 6.36111e-015
rhumerus -12.7196 -18.9227 -77.965
rradius 23.5592
rwrist 6.49346
rhand -11.1185 11.9371
rfingers 7.12502
rthumb 14.9063 -17.5066
lclavicle 2.22639e-014 6.36111e-015
lhumerus -44.4458 -48.8429 90.7979
lradius 47.9354
lwrist -3.88499
lhand -19.4838 -7.55494
lfingers 7.12502
lthumb 6.83818 22.3146
rfemur -46.0116 -6.35853 12.4358
rtibia 95.3971
rfoot -24.6578 31.648
rtoes 9.24209
lfemur -47.6014 14.2376 -18.4956
ltibia 97.9268
lfoot -28.0829 -2.31379
ltoes -32.9581
247
root 4.39094 15.2113 -0.323299 187.659 -264.66 -532.768
lowerback 16.576 1.75344 3.91664
upperback 9.20622 3.45519 2.76257
thorax 0.576526 2.0456 0.160312
lowerneck -16.6478 0.588213 4.06841
upperneck 11.063 1.6569 -11.3108
head 6.2326 0.0985232 -4.14195
rclavicle -1.59028e-014 4.6118e-014
rhumerus -13.2305 -18.7645 -77.9986
rradius 23.6051
rwrist 6.49434
rhand -11.6688 12.2175
rfingers 7.12502
rthumb 14.3761 -17.2647
lclavicle -1.59028e-014 4.6118e-014
lhumerus -45.1338 -48.3503 91.3795
lradius 47.7628
lwrist -4.26128
lhand -19.1467 -7.52743
lfingers 7.12502
lthumb 7.16359 22.3313
rfemur -44.8717 -6.14077 12.5436
rtibia 93.4268
rfoot -24.7374 31.3653
rtoes 9.69333
lfemur -46.4917 14.0097 -18.5859
ltibia 96.0462
lfoot -28.037 -2.08837
ltoes -32.6444
248
root 4.43172 15.3856 -0.317364 188.183 -264.577 -532.401
lowerback 15.9337 1.83229 3.79381
upperback 8.99048 3.4806 2.60647
thorax 0.68337 2.04396 0.0831973
lowerneck -16.4357 0.574579 3.99047
upperneck 11.2389 1.64153 -11.1104
head 6.24762 0.104364 -4.06583
rclavicle 2.78299e-014 1.74931e-014
rhumerus -13.7559 -18.4247 -78.0261
rradius 23.6819
rwrist 6.42692
rhand -12.308 12.4493
rfingers 7.12502
rthumb 13.7602 -17.0757
lclavicle 2.78299e-014 1.74931e-014
lhumerus -45.7747 -47.8358 91.9434
lradius 47.5752
lwrist -4.61513
lhand -18.7597 -7.46263
lfingers 7.12502
lthumb 7.53705 22.3831
rfemur -43.7066 -5.95855 12.6401
rtibia 91.4104
rfoot -24.7271 31.1194
rtoes 10.1421
lfemur -45.3776 13.8054 -18.675
ltibia 94.121
lfoot -27.9571 -1.85756
ltoes -32.4482
249
root 4.47269 15.5593 -0.311304 188.721 -264.512 -532.021
lowerback 15.2935 1.91015 3.69576
upperback 8.77743 3.5111 2.43179
thorax 0.797194 2.04674 -0.0266729
lowerneck -16.2247 0.546653 3.91646
upperneck 11.3939 1.59617 -10.8689
head 6.25335 0.0992679 -3.97962
rclavicle -7.95139e-016 3.81667e-014
rhumerus -14.2766 -18.2354 -78.0846
rradius 23.7341
rwrist 6.51779
rhand -12.92 12.6669
rfingers 7.12502
rthumb 13.1703 -16.8971
lclavicle -7.95139e-016 3.81667e-014
lhumerus -46.3271 -47.3626 92.4329
lradius 47.3505
lwrist -4.89874
lhand -18.3194 -7.4046
lfingers 7.12502
lthumb 7.96203 22.4254
rfemur -42.5438 -5.80708 12.7301
rtibia 89.3691
rfoot -24.744 30.8579
rtoes 10.5174
lfemur -44.2538 13.5926 -18.759
ltibia 92.1526
lfoot -27.8586 -1.6401
ltoes -32.158
250
root 4.51376 15.732 -0.305044 189.017 -264.422 -531.883
lowerback 14.6529 1.98547 3.58726
upperback 8.56291 3.54033 2.2799
thorax 0.909819 2.04825 -0.105694
lowerneck -15.9344 0.528546 3.85793
upperneck 11.4908 1.56476 -10.6757
head 6.22915 0.101637 -3.90873
rclavicle -3.33958e-014 1.59028e-015
rhumerus -14.8266 -17.8443 -78.1302
rradius 23.8291
rwrist 6.49841
rhand -13.401 12.8224
rfingers 7.12502
rthumb 12.7066 -16.771
lclavicle -3.33958e-014 1.59028e-015
lhumerus -46.8055 -46.7639 92.8969
lradius 47.0554
lwrist -5.23722
lhand -17.8845 -7.31494
lfingers 7.12502
lthumb 8.38184 22.4987
rfemur -41.3917 -5.65171 12.8378
rtibia 87.2936
rfoot -24.7144 30.5555
rtoes 10.7372
lfemur -43.1182 13.4512 -18.8202
ltibia 90.1357
lfoot -27.7382 -1.47041
ltoes -31.8098
